<svg viewBox="0 0 1600 900" xmlns="http://www.w3.org/2000/svg" preserveAspectRatio="xMidYMid slice">
  <defs>
    <linearGradient id="sky2" x1="0" y1="0" x2="0" y2="1">
      <stop offset="0%" stop-color="#0D2B5C"/>
      <stop offset="50%" stop-color="#1565C0"/>
      <stop offset="100%" stop-color="#FFB74D"/>
    </linearGradient>
  </defs>
  <rect width="1600" height="900" fill="url(#sky2)"/>
  <circle cx="800" cy="560" r="120" fill="#FFE082" opacity="0.5"/>
  <path d="M0 600 H1600 V900 H0 Z" fill="#263238"/>
  <g stroke="#FFC107" stroke-width="8" stroke-dasharray="50 40" opacity="0.8">
    <line x1="0" y1="750" x2="1600" y2="750"/>
  </g>
  <!-- three vans lined up -->
  <g transform="translate(120,470)">
    <rect x="0" y="40" width="240" height="140" rx="8" fill="#1E6F3C"/>
    <path d="M240 80 L300 80 L335 130 L335 180 L240 180 Z" fill="#FFC107"/>
    <circle cx="70" cy="190" r="30" fill="#0A0A0A"/><circle cx="190" cy="190" r="30" fill="#0A0A0A"/><circle cx="300" cy="190" r="30" fill="#0A0A0A"/>
  </g>
  <g transform="translate(560,450)">
    <rect x="0" y="40" width="260" height="155" rx="8" fill="#F5F5F5"/>
    <rect x="0" y="40" width="260" height="155" rx="8" fill="none" stroke="#1565C0" stroke-width="4"/>
    <text x="130" y="140" font-family="Arial" font-weight="800" font-size="36" fill="#0D47A1" text-anchor="middle">ZSM</text>
    <path d="M260 85 L325 85 L362 140 L362 195 L260 195 Z" fill="#FFC107"/>
    <circle cx="75" cy="205" r="33" fill="#0A0A0A"/><circle cx="205" cy="205" r="33" fill="#0A0A0A"/><circle cx="325" cy="205" r="33" fill="#0A0A0A"/>
  </g>
  <g transform="translate(1040,470)">
    <rect x="0" y="40" width="240" height="140" rx="8" fill="#1565C0"/>
    <path d="M240 80 L300 80 L335 130 L335 180 L240 180 Z" fill="#FFC107"/>
    <circle cx="70" cy="190" r="30" fill="#0A0A0A"/><circle cx="190" cy="190" r="30" fill="#0A0A0A"/><circle cx="300" cy="190" r="30" fill="#0A0A0A"/>
  </g>
</svg>
